<?xml version="1.0" encoding="UTF-8" standalone="no"?>
<!-- Created with Inkscape (http://www.inkscape.org/) -->

<svg
   xmlns:dc="http://purl.org/dc/elements/1.1/"
   xmlns:cc="http://creativecommons.org/ns#"
   xmlns:rdf="http://www.w3.org/1999/02/22-rdf-syntax-ns#"
   xmlns:svg="http://www.w3.org/2000/svg"
   xmlns="http://www.w3.org/2000/svg"
   xmlns:sodipodi="http://sodipodi.sourceforge.net/DTD/sodipodi-0.dtd"
   xmlns:inkscape="http://www.inkscape.org/namespaces/inkscape"
   version="1.1"
   id="svg2"
   xml:space="preserve"
   width="137.39243"
   height="137.38977"
   viewBox="0 0 137.39243 137.38978"
   sodipodi:docname="chickens.svg"
   inkscape:version="0.92.3 (2405546, 2018-03-11)"><metadata
     id="metadata8"><rdf:RDF><cc:Work
         rdf:about=""><dc:format>image/svg+xml</dc:format><dc:type
           rdf:resource="http://purl.org/dc/dcmitype/StillImage" /><dc:title></dc:title></cc:Work></rdf:RDF></metadata><defs
     id="defs6"><clipPath
       clipPathUnits="userSpaceOnUse"
       id="clipPath21546"><path
         d="m 5997.94,3175.32 c -3.98,0.66 -10.29,0.83 -17.58,0.83 -3.99,0 -8.27,-0.05 -12.63,-0.11 -4.36,-0.05 -8.79,-0.1 -13.08,-0.1 -20.45,0 -37.5,1.18 -26.99,9.16 3.98,-0.65 10.25,-0.82 17.5,-0.82 4.02,0 8.35,0.05 12.75,0.1 4.4,0.06 8.87,0.11 13.19,0.11 20.41,0 37.36,-1.19 26.84,-9.17"
         id="path21544"
         inkscape:connector-curvature="0" /></clipPath><radialGradient
       fx="0"
       fy="0"
       cx="0"
       cy="0"
       r="1"
       gradientUnits="userSpaceOnUse"
       gradientTransform="matrix(0,4012.81,3987.3,0,3999.99,4000.01)"
       spreadMethod="pad"
       id="radialGradient21554"><stop
         style="stop-opacity:1;stop-color:#79443e"
         offset="0"
         id="stop21548" /><stop
         style="stop-opacity:1;stop-color:#79443e"
         offset="0.787879"
         id="stop21550" /><stop
         style="stop-opacity:1;stop-color:#5d312b"
         offset="1"
         id="stop21552" /></radialGradient><clipPath
       clipPathUnits="userSpaceOnUse"
       id="clipPath19800"><path
         d="m 5942.35,2724.78 c -6.85,24.78 12,24.61 23.43,31.64 -1.22,14.37 -26.48,4.14 -31.28,14.81 -0.38,5.99 2.47,7.89 6.3,7.89 3.33,0 7.39,-1.44 10.71,-2.89 3.32,-1.44 5.89,-2.89 6.21,-2.89 0.33,0 -1.65,1.5 -7.53,6.01 0.29,4.47 1.72,6.01 4.02,6.01 2.56,0 6.19,-1.9 10.5,-3.79 4.32,-1.9 9.32,-3.8 14.63,-3.8 2.68,0 5.43,0.48 8.22,1.69 -24.12,-12.51 -8,-38.83 20.72,-38.83 3.87,0 7.96,0.48 12.22,1.53 -26.24,14.84 -4.9,16.43 21.07,16.43 3.53,0 7.15,-0.03 10.74,-0.06 3.61,-0.03 7.19,-0.06 10.65,-0.06 7.78,0 14.89,0.15 20.08,0.79 1.17,-24.46 -20.06,-27.23 -39.09,-32.01 -2.19,12.45 7.42,13.52 7.8,23.47 -1.59,0.31 -3.02,0.46 -4.3,0.46 -12.03,0 -10.62,-13.12 -11.32,-24.18 -31.23,-0.7 -62.5,-1.48 -93.78,-2.22 m 45.21,54.68 c 0.54,0.28 1.11,0.56 1.69,0.83 -0.56,-0.31 -1.13,-0.58 -1.69,-0.83"
         id="path19798"
         inkscape:connector-curvature="0" /></clipPath><radialGradient
       fx="0"
       fy="0"
       cx="0"
       cy="0"
       r="1"
       gradientUnits="userSpaceOnUse"
       gradientTransform="matrix(0,4012.81,3987.3,0,3999.99,4000.01)"
       spreadMethod="pad"
       id="radialGradient19808"><stop
         style="stop-opacity:1;stop-color:#79443e"
         offset="0"
         id="stop19802" /><stop
         style="stop-opacity:1;stop-color:#79443e"
         offset="0.787879"
         id="stop19804" /><stop
         style="stop-opacity:1;stop-color:#5d312b"
         offset="1"
         id="stop19806" /></radialGradient><clipPath
       clipPathUnits="userSpaceOnUse"
       id="clipPath19692"><path
         d="m 5957.96,3758.49 c -20.87,4.68 -28.59,22.68 -39.09,37.91 -2.84,0.17 -5.59,0.25 -8.26,0.25 -16.21,0 -29.47,-2.87 -42.73,-5.74 -13.26,-2.87 -26.54,-5.74 -42.79,-5.74 -4.92,0 -10.12,0.26 -15.68,0.87 16.18,24.13 10.31,24.6 23.47,54.96 12.99,0.31 26.06,0.65 39.06,0.91 -18.97,-19.36 -10.7,-26.88 4.96,-26.88 12.65,0 30.13,4.91 41.97,12.46 6.55,-8.85 10.3,-20.57 7.8,-38.65 25.81,5.08 11.2,29.59 7.83,46.81 20.67,-8.67 24.27,-6.16 15.69,-30.71 6.27,6.8 21.4,5.12 23.44,16.09 5.81,24.08 -26.98,8.83 -15.67,38.49 4.67,0.84 8.8,1.24 12.43,1.24 34.53,0 24.59,-35.85 18.86,-62.66 -4.33,3.4 -8.82,4.87 -13.11,4.87 -17.72,0 -32.06,-25.16 -18.18,-44.48"
         id="path19690"
         inkscape:connector-curvature="0" /></clipPath><radialGradient
       fx="0"
       fy="0"
       cx="0"
       cy="0"
       r="1"
       gradientUnits="userSpaceOnUse"
       gradientTransform="matrix(0,4012.81,3987.3,0,3999.99,4000.01)"
       spreadMethod="pad"
       id="radialGradient19700"><stop
         style="stop-opacity:1;stop-color:#79443e"
         offset="0"
         id="stop19694" /><stop
         style="stop-opacity:1;stop-color:#79443e"
         offset="0.787879"
         id="stop19696" /><stop
         style="stop-opacity:1;stop-color:#5d312b"
         offset="1"
         id="stop19698" /></radialGradient><clipPath
       clipPathUnits="userSpaceOnUse"
       id="clipPath19566"><path
         d="m 5699.94,3022.06 c 6.32,34.47 9.63,26.92 23.45,47.16 21.1,-0.16 -21.77,-39.67 0.28,-39.67 1.96,0 4.45,0.32 7.55,1 -2.43,-10.59 -19.58,-6.93 -31.28,-8.49"
         id="path19564"
         inkscape:connector-curvature="0" /></clipPath><radialGradient
       fx="0"
       fy="0"
       cx="0"
       cy="0"
       r="1"
       gradientUnits="userSpaceOnUse"
       gradientTransform="matrix(0,4012.81,3987.3,0,3999.99,4000.01)"
       spreadMethod="pad"
       id="radialGradient19574"><stop
         style="stop-opacity:1;stop-color:#79443e"
         offset="0"
         id="stop19568" /><stop
         style="stop-opacity:1;stop-color:#79443e"
         offset="0.787879"
         id="stop19570" /><stop
         style="stop-opacity:1;stop-color:#5d312b"
         offset="1"
         id="stop19572" /></radialGradient><clipPath
       clipPathUnits="userSpaceOnUse"
       id="clipPath19458"><path
         d="m 5633.45,3811.59 c -1.24,0 7.71,4.97 20.44,9.94 12.74,4.97 29.26,9.95 43.19,9.95 3.8,0 7.4,-0.37 10.68,-1.21 1.4,-14.44 -8.75,-17.68 -22.23,-17.68 -5.48,0 -11.51,0.53 -17.54,1.07 -6.03,0.53 -12.05,1.07 -17.53,1.07 -4.93,0 -9.42,-0.44 -13.05,-1.7 -2.33,-1 -3.59,-1.44 -3.96,-1.44"
         id="path19456"
         inkscape:connector-curvature="0" /></clipPath><radialGradient
       fx="0"
       fy="0"
       cx="0"
       cy="0"
       r="1"
       gradientUnits="userSpaceOnUse"
       gradientTransform="matrix(0,4012.81,3987.3,0,3999.99,4000.01)"
       spreadMethod="pad"
       id="radialGradient19466"><stop
         style="stop-opacity:1;stop-color:#79443e"
         offset="0"
         id="stop19460" /><stop
         style="stop-opacity:1;stop-color:#79443e"
         offset="0.787879"
         id="stop19462" /><stop
         style="stop-opacity:1;stop-color:#5d312b"
         offset="1"
         id="stop19464" /></radialGradient><clipPath
       clipPathUnits="userSpaceOnUse"
       id="clipPath19440"><path
         d="m 5644.71,3557.76 c -5.36,0 -10.99,2.22 -15.14,6.48 4.82,7.02 9.43,14.08 0,15.53 -5.63,4.98 -6.4,6.63 -4.32,6.63 2.06,0 6.93,-1.62 12.66,-3.24 5.74,-1.63 12.33,-3.25 17.86,-3.25 1.84,0 3.56,0.18 5.09,0.6 2.34,-15.52 -6.47,-22.75 -16.15,-22.75"
         id="path19438"
         inkscape:connector-curvature="0" /></clipPath><radialGradient
       fx="0"
       fy="0"
       cx="0"
       cy="0"
       r="1"
       gradientUnits="userSpaceOnUse"
       gradientTransform="matrix(0,4012.81,3987.3,0,3999.99,4000.01)"
       spreadMethod="pad"
       id="radialGradient19448"><stop
         style="stop-opacity:1;stop-color:#79443e"
         offset="0"
         id="stop19442" /><stop
         style="stop-opacity:1;stop-color:#79443e"
         offset="0.787879"
         id="stop19444" /><stop
         style="stop-opacity:1;stop-color:#5d312b"
         offset="1"
         id="stop19446" /></radialGradient><clipPath
       clipPathUnits="userSpaceOnUse"
       id="clipPath19386"><path
         d="m 5574.53,3766.57 c -4.23,0 -4.73,9.31 -4.78,18.62 -0.05,9.3 0.35,18.61 -2.06,18.61 -0.21,0 -0.45,-0.07 -0.7,-0.22 2.42,10.61 19.61,6.93 31.31,8.53 -19.09,-12.42 -28.32,-28.67 -15.64,-39.19 -3.64,-4.5 -6.25,-6.35 -8.13,-6.35"
         id="path19384"
         inkscape:connector-curvature="0" /></clipPath><radialGradient
       fx="0"
       fy="0"
       cx="0"
       cy="0"
       r="1"
       gradientUnits="userSpaceOnUse"
       gradientTransform="matrix(0,4012.81,3987.3,0,3999.99,4000.01)"
       spreadMethod="pad"
       id="radialGradient19394"><stop
         style="stop-opacity:1;stop-color:#79443e"
         offset="0"
         id="stop19388" /><stop
         style="stop-opacity:1;stop-color:#79443e"
         offset="0.787879"
         id="stop19390" /><stop
         style="stop-opacity:1;stop-color:#5d312b"
         offset="1"
         id="stop19392" /></radialGradient><clipPath
       clipPathUnits="userSpaceOnUse"
       id="clipPath19350"><path
         d="m 5934.5,2841.17 c -23.19,22.25 -90.3,-6 -15.63,30.72 10.19,-9.7 20.22,-13.26 30.22,-13.26 20.98,0 41.8,15.68 63.6,23.27 5.38,20.95 -16.19,14.63 -23.44,22.73 -17.11,-2.7 -6.4,-32.35 -26.27,-32.35 -1.49,0 -3.16,0.17 -5.02,0.53 -21.01,25.04 18.49,19.02 0,46.58 -2.39,0.95 -4.75,1.49 -7.03,1.67 1.26,-0.03 2.52,-0.05 3.75,-0.05 19.1,0 34.93,4.06 34.57,14.64 22.63,-5.3 14.86,-41.55 42.72,-41.55 5.2,0 11.65,1.26 19.78,4.24 0,-7.8 0,-15.57 0,-23.28 -18.18,-0.46 -36.47,-0.91 -54.69,-1.33 -3.66,-16.67 11.15,-14.54 23.44,-14.94 -18.99,-15.25 -62.41,-6.88 -86,-17.62 m -135.09,4.86 c -5.67,0 -12.48,3.98 -21.3,14.74 13.6,9.91 53.4,-6.15 46.93,39.97 -0.4,2.28 -3.04,2.94 -6.88,2.94 -2.61,0 -5.78,-0.3 -9.17,-0.61 -3.4,-0.3 -7.03,-0.6 -10.56,-0.6 -11.57,0 -22.13,3.25 -20.32,20.41 -14.13,-26.06 -46.25,-17.46 -62.55,-24.81 0.04,-1.58 18.36,-7.63 35.83,-7.63 10.68,0 21.05,2.26 26.72,9.18 24.84,-17.86 -10.34,-27.04 -40.51,-27.04 -23.93,0 -44.7,5.78 -29.84,17.58 -5.2,-0.18 -10.45,-0.27 -15.63,-0.42 -0.47,-10.4 -4.02,-12.26 -10.38,-12.26 -1.77,0 -3.76,0.14 -5.96,0.29 -2.19,0.14 -4.6,0.28 -7.22,0.28 -6.53,0 -14.34,-0.89 -23.34,-4.94 -5.73,21.09 15.54,16.04 15.63,31.45 -0.98,3.29 -2.23,4.41 -3.83,4.41 -1.73,0 -3.88,-1.32 -6.55,-2.64 -2.66,-1.33 -5.85,-2.65 -9.66,-2.65 -1.09,0 -2.22,0.1 -3.41,0.35 -8.79,-7.25 0.47,-17.37 -15.67,-31.47 15.17,41.4 -62.98,29.79 -86,36.82 9.66,11.34 26.89,15.31 46.92,16.61 0,-5.16 0,-10.31 0,-15.52 19.37,9.2 37.68,11.9 55.81,11.9 13,0 25.92,-1.39 39.08,-2.78 13.16,-1.39 26.57,-2.78 40.55,-2.78 20.95,0 43.19,3.12 67.84,14.04 -2.2,-12.6 7.43,-13.22 7.84,-23.1 0.97,-0.13 1.88,-0.19 2.71,-0.19 20.53,0 3.81,36.08 20.72,39.58 27.65,-0.24 -0.76,-14.31 23.49,-22.75 28.2,13.2 -1.12,37.36 15.61,54.75 1.2,0.21 2.29,0.31 3.27,0.31 16.82,0 4.94,-29.2 20.21,-30.81 2.9,-0.9 5.29,-1.3 7.26,-1.3 14.05,0 6.78,20.64 8.33,32.71 0.94,0.23 1.77,0.33 2.49,0.33 4.4,0 4.97,-3.85 5.38,-7.92 5.2,0.12 10.42,0.27 15.62,0.4 -27.06,-17.37 -1.98,-12.59 15.63,-22.94 -0.64,-3.78 -2.16,-5.15 -3.69,-5.15 -2.06,0 -4.14,2.48 -4.14,4.95 -2.98,1.06 -5.34,1.52 -7.23,1.52 -6.12,0 -7.26,-4.82 -8.4,-9.65 -1.14,-4.82 -2.29,-9.65 -8.4,-9.65 -1.9,0 -4.27,0.46 -7.26,1.53 9.93,-6.43 32.74,-11.49 53.39,-12.33 -19.55,-0.28 -32.44,-25.93 -14.27,-33.37 -9.02,-4.02 -26.28,-7.94 -43.87,-7.94 -18.91,0 -38.21,4.52 -48.06,18.32 -0.4,1.09 -1.01,2.08 -1.87,2.94 0.58,-1.02 1.2,-2 1.87,-2.94 5.05,-13.65 -22.02,-43.42 10.39,-43.42 1.05,0 2.17,0.04 3.35,0.1 -2.42,-10.6 -19.56,-6.91 -31.27,-8.5 0,7.74 0,15.53 0,23.27 -8.37,-9.54 -14.99,-23.56 -25.63,-23.57 m 81.43,64.84 c -2.55,0 -5.47,-0.37 -8.9,-1.27 -1.83,-15.98 5.51,-21.46 15.08,-21.46 11.36,0 25.86,7.74 31.85,14.78 -3.42,-0.89 -6.34,-1.26 -8.89,-1.26 -6.36,0 -10.46,2.3 -14.56,4.61 -4.11,2.3 -8.21,4.6 -14.58,4.6 m 70.09,10.19 c -0.72,0.02 -1.44,0.05 -2.16,0.08 0.11,0 0.21,0 0.32,0 0.61,0 1.22,-0.03 1.84,-0.08"
         id="path19348"
         inkscape:connector-curvature="0" /></clipPath><radialGradient
       fx="0"
       fy="0"
       cx="0"
       cy="0"
       r="1"
       gradientUnits="userSpaceOnUse"
       gradientTransform="matrix(0,4012.81,3987.3,0,3999.99,4000.01)"
       spreadMethod="pad"
       id="radialGradient19358"><stop
         style="stop-opacity:1;stop-color:#79443e"
         offset="0"
         id="stop19352" /><stop
         style="stop-opacity:1;stop-color:#79443e"
         offset="0.787879"
         id="stop19354" /><stop
         style="stop-opacity:1;stop-color:#5d312b"
         offset="1"
         id="stop19356" /></radialGradient><clipPath
       clipPathUnits="userSpaceOnUse"
       id="clipPath19260"><path
         d="m 5527.93,2722.77 c -14.95,2.89 -33.67,1.95 -31.28,22.49 4.13,1.07 7.77,1.49 11.03,1.49 6.05,0 10.76,-1.46 14.79,-2.92 4.04,-1.46 7.4,-2.91 10.74,-2.91 3.27,0 6.52,1.38 10.38,5.5 24.12,-7.27 -22.46,-7.91 -15.66,-23.65"
         id="path19258"
         inkscape:connector-curvature="0" /></clipPath><radialGradient
       fx="0"
       fy="0"
       cx="0"
       cy="0"
       r="1"
       gradientUnits="userSpaceOnUse"
       gradientTransform="matrix(0,4012.81,3987.3,0,3999.99,4000.01)"
       spreadMethod="pad"
       id="radialGradient19268"><stop
         style="stop-opacity:1;stop-color:#79443e"
         offset="0"
         id="stop19262" /><stop
         style="stop-opacity:1;stop-color:#79443e"
         offset="0.787879"
         id="stop19264" /><stop
         style="stop-opacity:1;stop-color:#5d312b"
         offset="1"
         id="stop19266" /></radialGradient><clipPath
       clipPathUnits="userSpaceOnUse"
       id="clipPath12654"><path
         d="m 6116.12,2875.06 c -15.14,0 -31.31,8.06 -25.25,24.19 7.28,3.59 13.05,5.14 17.97,5.14 11.63,0 18.45,-8.67 28.91,-19.55 -2.8,-6.52 -12.01,-9.78 -21.63,-9.78"
         id="path12652"
         inkscape:connector-curvature="0" /></clipPath><radialGradient
       fx="0"
       fy="0"
       cx="0"
       cy="0"
       r="1"
       gradientUnits="userSpaceOnUse"
       gradientTransform="matrix(0,4012.81,3987.3,0,3999.99,4000.01)"
       spreadMethod="pad"
       id="radialGradient12662"><stop
         style="stop-opacity:1;stop-color:#79443e"
         offset="0"
         id="stop12656" /><stop
         style="stop-opacity:1;stop-color:#79443e"
         offset="0.787879"
         id="stop12658" /><stop
         style="stop-opacity:1;stop-color:#5d312b"
         offset="1"
         id="stop12660" /></radialGradient><clipPath
       clipPathUnits="userSpaceOnUse"
       id="clipPath12474"><path
         d="m 5957.96,3711.88 c -21.93,14.34 23.46,28.48 39.1,32.02 -4.79,-7.04 -9.45,-14.11 0,-15.54 1.19,-7.29 -3.3,-9.07 -9.62,-9.07 -3.04,0 -6.5,0.41 -9.95,0.82 -3.46,0.41 -6.91,0.82 -9.94,0.82 -6.32,0 -10.79,-1.78 -9.59,-9.05"
         id="path12472"
         inkscape:connector-curvature="0" /></clipPath><radialGradient
       fx="0"
       fy="0"
       cx="0"
       cy="0"
       r="1"
       gradientUnits="userSpaceOnUse"
       gradientTransform="matrix(0,4012.81,3987.3,0,3999.99,4000.01)"
       spreadMethod="pad"
       id="radialGradient12482"><stop
         style="stop-opacity:1;stop-color:#79443e"
         offset="0"
         id="stop12476" /><stop
         style="stop-opacity:1;stop-color:#79443e"
         offset="0.787879"
         id="stop12478" /><stop
         style="stop-opacity:1;stop-color:#5d312b"
         offset="1"
         id="stop12480" /></radialGradient><clipPath
       clipPathUnits="userSpaceOnUse"
       id="clipPath12420"><path
         d="m 5935.3,3624.9 c -3.62,0 -7.58,0.32 -11.54,0.64 -3.96,0.33 -7.92,0.65 -11.55,0.65 -3.36,0 -6.43,-0.28 -8.96,-1.08 6.44,12.32 21,16.83 40.22,16.83 2.18,0 4.42,-0.06 6.72,-0.17 3.71,-14.04 -4.13,-16.87 -14.89,-16.87"
         id="path12418"
         inkscape:connector-curvature="0" /></clipPath><radialGradient
       fx="0"
       fy="0"
       cx="0"
       cy="0"
       r="1"
       gradientUnits="userSpaceOnUse"
       gradientTransform="matrix(0,4012.81,3987.3,0,3999.99,4000.01)"
       spreadMethod="pad"
       id="radialGradient12428"><stop
         style="stop-opacity:1;stop-color:#79443e"
         offset="0"
         id="stop12422" /><stop
         style="stop-opacity:1;stop-color:#79443e"
         offset="0.787879"
         id="stop12424" /><stop
         style="stop-opacity:1;stop-color:#5d312b"
         offset="1"
         id="stop12426" /></radialGradient><clipPath
       clipPathUnits="userSpaceOnUse"
       id="clipPath12348"><path
         d="m 5889.11,3834.09 c -3.02,0 -6.15,0.11 -9.32,0.25 -2.59,9.58 3.39,14.47 8.68,14.47 3.46,0 6.63,-2.09 6.91,-6.33 7.43,4.88 8.07,16.28 20.46,16.28 0.94,0 1.95,-0.06 3.03,-0.2 3.08,-20.73 -11.43,-24.47 -29.76,-24.47"
         id="path12346"
         inkscape:connector-curvature="0" /></clipPath><radialGradient
       fx="0"
       fy="0"
       cx="0"
       cy="0"
       r="1"
       gradientUnits="userSpaceOnUse"
       gradientTransform="matrix(0,4012.81,3987.3,0,3999.99,4000.01)"
       spreadMethod="pad"
       id="radialGradient12356"><stop
         style="stop-opacity:1;stop-color:#79443e"
         offset="0"
         id="stop12350" /><stop
         style="stop-opacity:1;stop-color:#79443e"
         offset="0.787879"
         id="stop12352" /><stop
         style="stop-opacity:1;stop-color:#5d312b"
         offset="1"
         id="stop12354" /></radialGradient><clipPath
       clipPathUnits="userSpaceOnUse"
       id="clipPath12330"><path
         d="m 5916.45,3709.78 c -4.17,0 -8.71,0.37 -13.25,0.73 -4.53,0.37 -9.07,0.73 -13.23,0.73 -3.81,0 -7.3,-0.3 -10.18,-1.2 5.1,7.98 17.94,8.45 15.59,23.66 3.97,1.15 7.29,1.65 10.13,1.65 14.98,0 16.45,-13.78 28.99,-16.24 -1.46,-7.54 -8.84,-9.33 -18.05,-9.33"
         id="path12328"
         inkscape:connector-curvature="0" /></clipPath><radialGradient
       fx="0"
       fy="0"
       cx="0"
       cy="0"
       r="1"
       gradientUnits="userSpaceOnUse"
       gradientTransform="matrix(0,4012.81,3987.3,0,3999.99,4000.01)"
       spreadMethod="pad"
       id="radialGradient12338"><stop
         style="stop-opacity:1;stop-color:#79443e"
         offset="0"
         id="stop12332" /><stop
         style="stop-opacity:1;stop-color:#79443e"
         offset="0.787879"
         id="stop12334" /><stop
         style="stop-opacity:1;stop-color:#5d312b"
         offset="1"
         id="stop12336" /></radialGradient><clipPath
       clipPathUnits="userSpaceOnUse"
       id="clipPath12276"><path
         d="m 5864.37,2800.08 c -5.92,0 -12.43,2.34 -19.46,4.68 -7.02,2.34 -14.55,4.67 -22.5,4.67 -4.22,0 -8.56,-0.66 -13,-2.33 2.65,14.01 9.08,18.63 17.45,18.63 14.91,0 36.01,-14.64 52.93,-16.94 -4.52,-6.52 -9.69,-8.71 -15.42,-8.71"
         id="path12274"
         inkscape:connector-curvature="0" /></clipPath><radialGradient
       fx="0"
       fy="0"
       cx="0"
       cy="0"
       r="1"
       gradientUnits="userSpaceOnUse"
       gradientTransform="matrix(0,4012.81,3987.3,0,3999.99,4000.01)"
       spreadMethod="pad"
       id="radialGradient12284"><stop
         style="stop-opacity:1;stop-color:#79443e"
         offset="0"
         id="stop12278" /><stop
         style="stop-opacity:1;stop-color:#79443e"
         offset="0.787879"
         id="stop12280" /><stop
         style="stop-opacity:1;stop-color:#5d312b"
         offset="1"
         id="stop12282" /></radialGradient><clipPath
       clipPathUnits="userSpaceOnUse"
       id="clipPath12222"><path
         d="m 5801.59,2682.62 c 0,7.71 0,15.51 0,23.28 4.7,0.38 9.33,0.53 13.89,0.53 8.39,0 16.52,-0.5 24.33,-1.01 7.82,-0.51 15.34,-1.02 22.51,-1.02 18.82,0 35.28,3.5 48.78,19.68 -18.87,4.28 -35.71,9.88 -60.29,9.88 -11.7,0 -25.14,-1.27 -41.4,-4.55 7.64,21.07 17.25,40.25 23.47,62.71 30.45,-1.24 34.28,-10.71 51.51,-10.71 6.38,0 14.6,1.3 26.71,4.81 -5.15,-15.88 -14.14,-18.95 -24.81,-18.95 -3.37,0 -6.89,0.31 -10.52,0.62 -3.63,0.3 -7.36,0.6 -11.12,0.6 -8.06,0 -16.27,-1.4 -23.95,-7.24 11.27,-9.94 20.71,-12.44 30.32,-12.44 4.86,0 9.77,0.64 14.97,1.28 5.21,0.64 10.71,1.29 16.77,1.29 7.07,0 14.91,-0.88 23.91,-3.65 3.32,-16.15 -5.35,-20.68 -7.8,-31.28 39.2,-0.5 75.83,-7.1 114.92,-7.1 25.35,0 51.74,2.78 80.54,11.79 -7.19,-21.22 -35.77,-26.83 -69.04,-26.83 -18.68,0 -38.83,1.77 -57.51,3.54 -18.67,1.77 -35.87,3.53 -48.65,3.53 -1.62,0 -3.16,-0.03 -4.63,-0.09 -38.04,-1.51 -93.2,-18.64 -132.91,-18.67"
         id="path12220"
         inkscape:connector-curvature="0" /></clipPath><radialGradient
       fx="0"
       fy="0"
       cx="0"
       cy="0"
       r="1"
       gradientUnits="userSpaceOnUse"
       gradientTransform="matrix(0,4012.81,3987.3,0,3999.99,4000.01)"
       spreadMethod="pad"
       id="radialGradient12230"><stop
         style="stop-opacity:1;stop-color:#79443e"
         offset="0"
         id="stop12224" /><stop
         style="stop-opacity:1;stop-color:#79443e"
         offset="0.787879"
         id="stop12226" /><stop
         style="stop-opacity:1;stop-color:#5d312b"
         offset="1"
         id="stop12228" /></radialGradient><clipPath
       clipPathUnits="userSpaceOnUse"
       id="clipPath12186"><path
         d="m 5815.35,2654.57 c -7.1,0 -14.05,1.83 -21.57,4.56 -0.96,13.41 5.75,17.38 14.94,17.38 6.64,0 14.58,-2.08 21.84,-4.15 7.26,-2.08 13.84,-4.15 17.76,-4.15 0.07,0 0.13,0 0.19,0 -12.72,-9.97 -23.09,-13.64 -33.16,-13.64"
         id="path12184"
         inkscape:connector-curvature="0" /></clipPath><radialGradient
       fx="0"
       fy="0"
       cx="0"
       cy="0"
       r="1"
       gradientUnits="userSpaceOnUse"
       gradientTransform="matrix(0,4012.81,3987.3,0,3999.99,4000.01)"
       spreadMethod="pad"
       id="radialGradient12194"><stop
         style="stop-opacity:1;stop-color:#79443e"
         offset="0"
         id="stop12188" /><stop
         style="stop-opacity:1;stop-color:#79443e"
         offset="0.787879"
         id="stop12190" /><stop
         style="stop-opacity:1;stop-color:#5d312b"
         offset="1"
         id="stop12192" /></radialGradient><clipPath
       clipPathUnits="userSpaceOnUse"
       id="clipPath12096"><path
         d="m 5746.87,3792.36 c 1.25,9.02 -1.74,13.77 -7.83,15.31 1.93,8.52 15.55,5.64 15.64,15.92 29.1,-19.46 64.04,-16.49 -7.81,-31.23"
         id="path12094"
         inkscape:connector-curvature="0" /></clipPath><radialGradient
       fx="0"
       fy="0"
       cx="0"
       cy="0"
       r="1"
       gradientUnits="userSpaceOnUse"
       gradientTransform="matrix(0,4012.81,3987.3,0,3999.99,4000.01)"
       spreadMethod="pad"
       id="radialGradient12104"><stop
         style="stop-opacity:1;stop-color:#79443e"
         offset="0"
         id="stop12098" /><stop
         style="stop-opacity:1;stop-color:#79443e"
         offset="0.787879"
         id="stop12100" /><stop
         style="stop-opacity:1;stop-color:#5d312b"
         offset="1"
         id="stop12102" /></radialGradient><clipPath
       clipPathUnits="userSpaceOnUse"
       id="clipPath12078"><path
         d="m 5774.27,2719.47 c -7.02,0 -12,2.07 -17,4.14 -4.98,2.08 -9.98,4.15 -17.02,4.15 -0.4,0 -0.8,-0.01 -1.21,-0.02 -5.44,33.76 59.18,-0.37 46.9,39.92 33.9,-10.35 -8.22,-17.51 0,-46.55 -4.5,-1.17 -8.32,-1.64 -11.67,-1.64"
         id="path12076"
         inkscape:connector-curvature="0" /></clipPath><radialGradient
       fx="0"
       fy="0"
       cx="0"
       cy="0"
       r="1"
       gradientUnits="userSpaceOnUse"
       gradientTransform="matrix(0,4012.81,3987.3,0,3999.99,4000.01)"
       spreadMethod="pad"
       id="radialGradient12086"><stop
         style="stop-opacity:1;stop-color:#79443e"
         offset="0"
         id="stop12080" /><stop
         style="stop-opacity:1;stop-color:#79443e"
         offset="0.787879"
         id="stop12082" /><stop
         style="stop-opacity:1;stop-color:#5d312b"
         offset="1"
         id="stop12084" /></radialGradient><clipPath
       clipPathUnits="userSpaceOnUse"
       id="clipPath11970"><path
         d="m 5701.26,2726.77 c -0.43,0 -0.87,0.01 -1.32,0.03 2.88,13.28 -6.07,14.51 -15.63,15.16 0.42,7.44 6.69,9.2 14.79,9.2 3.64,0 7.65,-0.35 11.66,-0.71 4.01,-0.36 8.03,-0.71 11.68,-0.71 3.32,0 6.34,0.29 8.78,1.15 -11.99,-6.11 -11.69,-24.12 -29.96,-24.12"
         id="path11968"
         inkscape:connector-curvature="0" /></clipPath><radialGradient
       fx="0"
       fy="0"
       cx="0"
       cy="0"
       r="1"
       gradientUnits="userSpaceOnUse"
       gradientTransform="matrix(0,4012.81,3987.3,0,3999.99,4000.01)"
       spreadMethod="pad"
       id="radialGradient11978"><stop
         style="stop-opacity:1;stop-color:#79443e"
         offset="0"
         id="stop11972" /><stop
         style="stop-opacity:1;stop-color:#79443e"
         offset="0.787879"
         id="stop11974" /><stop
         style="stop-opacity:1;stop-color:#5d312b"
         offset="1"
         id="stop11976" /></radialGradient><clipPath
       clipPathUnits="userSpaceOnUse"
       id="clipPath11916"><path
         d="m 5629.57,3043.67 c -20.38,13.73 12.17,25.27 36.61,25.27 3.68,0 7.18,-0.26 10.29,-0.82 -1.94,-29.65 -41.37,-17.39 -46.9,-24.45"
         id="path11914"
         inkscape:connector-curvature="0" /></clipPath><radialGradient
       fx="0"
       fy="0"
       cx="0"
       cy="0"
       r="1"
       gradientUnits="userSpaceOnUse"
       gradientTransform="matrix(0,4012.81,3987.3,0,3999.99,4000.01)"
       spreadMethod="pad"
       id="radialGradient11924"><stop
         style="stop-opacity:1;stop-color:#79443e"
         offset="0"
         id="stop11918" /><stop
         style="stop-opacity:1;stop-color:#79443e"
         offset="0.787879"
         id="stop11920" /><stop
         style="stop-opacity:1;stop-color:#5d312b"
         offset="1"
         id="stop11922" /></radialGradient><clipPath
       clipPathUnits="userSpaceOnUse"
       id="clipPath11790"><path
         d="m 5535.74,3554.23 c 7.3,9.44 20.9,20.84 31.7,20.84 7.28,0 13.29,-5.19 15.22,-19.69 -15.67,-0.41 -31.27,-0.77 -46.92,-1.15"
         id="path11788"
         inkscape:connector-curvature="0" /></clipPath><radialGradient
       fx="0"
       fy="0"
       cx="0"
       cy="0"
       r="1"
       gradientUnits="userSpaceOnUse"
       gradientTransform="matrix(0,4012.81,3987.3,0,3999.99,4000.01)"
       spreadMethod="pad"
       id="radialGradient11798"><stop
         style="stop-opacity:1;stop-color:#79443e"
         offset="0"
         id="stop11792" /><stop
         style="stop-opacity:1;stop-color:#79443e"
         offset="0.787879"
         id="stop11794" /><stop
         style="stop-opacity:1;stop-color:#5d312b"
         offset="1"
         id="stop11796" /></radialGradient><clipPath
       clipPathUnits="userSpaceOnUse"
       id="clipPath11772"><path
         d="m 5566.05,2870.24 c -16.8,0 -32.04,7.85 -30.31,23.57 13.56,-6.28 20.97,-8.47 26.83,-8.47 10.56,0 16.07,7.12 43.55,10.18 -3.58,-16.84 -22.66,-25.28 -40.07,-25.28"
         id="path11770"
         inkscape:connector-curvature="0" /></clipPath><radialGradient
       fx="0"
       fy="0"
       cx="0"
       cy="0"
       r="1"
       gradientUnits="userSpaceOnUse"
       gradientTransform="matrix(0,4012.81,3987.3,0,3999.99,4000.01)"
       spreadMethod="pad"
       id="radialGradient11780"><stop
         style="stop-opacity:1;stop-color:#79443e"
         offset="0"
         id="stop11774" /><stop
         style="stop-opacity:1;stop-color:#79443e"
         offset="0.787879"
         id="stop11776" /><stop
         style="stop-opacity:1;stop-color:#5d312b"
         offset="1"
         id="stop11778" /></radialGradient><clipPath
       clipPathUnits="userSpaceOnUse"
       id="clipPath11754"><path
         d="m 5558.38,3823.4 c -9.85,0 -20.28,1.46 -30.45,2.57 15.48,13.52 48.76,9.68 70.37,17.2 -9.18,-15.84 -23.76,-19.77 -39.92,-19.77"
         id="path11752"
         inkscape:connector-curvature="0" /></clipPath><radialGradient
       fx="0"
       fy="0"
       cx="0"
       cy="0"
       r="1"
       gradientUnits="userSpaceOnUse"
       gradientTransform="matrix(0,4012.81,3987.3,0,3999.99,4000.01)"
       spreadMethod="pad"
       id="radialGradient11762"><stop
         style="stop-opacity:1;stop-color:#79443e"
         offset="0"
         id="stop11756" /><stop
         style="stop-opacity:1;stop-color:#79443e"
         offset="0.787879"
         id="stop11758" /><stop
         style="stop-opacity:1;stop-color:#5d312b"
         offset="1"
         id="stop11760" /></radialGradient><clipPath
       clipPathUnits="userSpaceOnUse"
       id="clipPath11574"><path
         d="m 5512.96,2899.5 c -2.59,0 -4.67,4.54 -7.36,9.07 -2.7,4.54 -6.02,9.08 -11.09,9.08 -1.68,0 -3.55,-0.49 -5.65,-1.65 7.48,6.72 3.46,24.59 17.83,24.59 1.61,0 3.46,-0.23 5.59,-0.72 0.67,-12.29 -3.76,-29.72 7.83,-30.88 -2.99,-6.96 -5.21,-9.49 -7.15,-9.49"
         id="path11572"
         inkscape:connector-curvature="0" /></clipPath><radialGradient
       fx="0"
       fy="0"
       cx="0"
       cy="0"
       r="1"
       gradientUnits="userSpaceOnUse"
       gradientTransform="matrix(0,4012.81,3987.3,0,3999.99,4000.01)"
       spreadMethod="pad"
       id="radialGradient11582"><stop
         style="stop-opacity:1;stop-color:#79443e"
         offset="0"
         id="stop11576" /><stop
         style="stop-opacity:1;stop-color:#79443e"
         offset="0.787879"
         id="stop11578" /><stop
         style="stop-opacity:1;stop-color:#5d312b"
         offset="1"
         id="stop11580" /></radialGradient><clipPath
       clipPathUnits="userSpaceOnUse"
       id="clipPath11484"><path
         d="m 5582.66,2988.2 c -16.25,1.59 -2.13,34.07 -15.67,38.47 -7.44,-5.56 -16.74,-9.25 -29.86,-9.25 -2.88,0 -5.93,0.18 -9.2,0.55 5.07,-7.77 17.98,-7.63 15.66,-22.95 -19.36,9.95 -35.2,23.51 -64.34,23.51 -6.51,0 -13.68,-0.68 -21.7,-2.22 9.62,19.77 28.2,24.02 50.32,24.02 8.33,0 17.16,-0.6 26.2,-1.2 9.05,-0.6 18.3,-1.21 27.48,-1.21 12.65,0 25.16,1.15 36.75,5.02 0.92,-32.64 -28.36,-26.66 7.82,-38.67 -1.77,-11.24 -23.31,-3.29 -23.46,-16.07"
         id="path11482"
         inkscape:connector-curvature="0" /></clipPath><radialGradient
       fx="0"
       fy="0"
       cx="0"
       cy="0"
       r="1"
       gradientUnits="userSpaceOnUse"
       gradientTransform="matrix(0,4012.81,3987.3,0,3999.99,4000.01)"
       spreadMethod="pad"
       id="radialGradient11492"><stop
         style="stop-opacity:1;stop-color:#79443e"
         offset="0"
         id="stop11486" /><stop
         style="stop-opacity:1;stop-color:#79443e"
         offset="0.787879"
         id="stop11488" /><stop
         style="stop-opacity:1;stop-color:#5d312b"
         offset="1"
         id="stop11490" /></radialGradient></defs><sodipodi:namedview
     pagecolor="#ffffff"
     bordercolor="#666666"
     borderopacity="1"
     objecttolerance="10"
     gridtolerance="10"
     guidetolerance="10"
     inkscape:pageopacity="0"
     inkscape:pageshadow="2"
     inkscape:window-width="2560"
     inkscape:window-height="1387"
     id="namedview4"
     showgrid="false"
     fit-margin-top="0"
     fit-margin-left="0"
     fit-margin-right="0"
     fit-margin-bottom="0"
     inkscape:zoom="1.18"
     inkscape:cx="118.88797"
     inkscape:cy="-141.85101"
     inkscape:window-x="0"
     inkscape:window-y="0"
     inkscape:window-maximized="1"
     inkscape:current-layer="g10" /><g
     id="g10"
     inkscape:groupmode="layer"
     inkscape:label="ink_ext_XXXXXX"
     transform="matrix(1.3333333,0,0,-1.3333333,217.61678,413.13914)"><g
       id="g1614"><path
         d="m 63.159227,258.01527 c 0,-28.45383 -23.067938,-51.52136 -51.522164,-51.52136 -28.454227,0 -51.521766,23.06753 -51.521766,51.52136 0,28.45383 23.067539,51.52137 51.521766,51.52137 28.454226,0 51.522164,-23.06754 51.522164,-51.52137"
         style="fill:#383838;fill-opacity:1;fill-rule:nonzero;stroke:none;stroke-width:0.39957628"
         id="path22"
         inkscape:connector-curvature="0" /><g
         transform="matrix(1.1695788,0,0,1.1695788,-1.9734329,-39.254911)"
         id="g1034"><path
           inkscape:connector-curvature="0"
           id="path24"
           style="fill:#ececec;fill-opacity:1;fill-rule:nonzero;stroke:none;stroke-width:0.39957628"
           d="m -13.103902,265.87094 48.178511,4.77494 c 1.181547,0.11587 1.597106,1.51839 0.646514,2.18168 l -24.088855,16.80219 c -0.513456,0.35962 -1.231494,0.31966 -1.6934046,-0.0959 L -14.149593,267.96072 c -0.897448,-0.80314 -0.193395,-2.20965 1.045691,-2.08978" /><path
           inkscape:connector-curvature="0"
           id="path26"
           style="fill:#ececec;fill-opacity:1;fill-rule:nonzero;stroke:none;stroke-width:0.39957628"
           d="m 31.901574,250.51123 c -3.038778,0 -5.501766,2.29357 -5.501766,5.11857 0,2.82501 2.462988,5.11857 5.501766,5.11857 3.039177,0 5.502165,-2.29356 5.502165,-5.11857 0,-2.825 -2.462988,-5.11857 -5.502165,-5.11857 z m -16.623173,-0.59137 c -2.011866,0 -3.641338,1.51439 -3.641338,3.38441 0,1.87001 1.629472,3.38441 3.641338,3.38441 2.010668,0 3.64014,-1.5144 3.64014,-3.38441 0,-1.87002 -1.629472,-3.38441 -3.64014,-3.38441 z m -4.432499,-13.04217 c -2.0106683,0 -3.6417387,1.51839 -3.6417387,3.3884 0,1.87002 1.6310704,3.38441 3.6417387,3.38441 2.010268,0 3.641338,-1.51439 3.641338,-3.38441 0,-1.87001 -1.63107,-3.3884 -3.641338,-3.3884 z m -16.1580661,-4.87883 c -3.4962924,0 -6.3292879,2.6372 -6.3292879,5.88576 0,3.24855 2.8329955,5.88576 6.3292879,5.88576 3.4946941,0 6.32769,-2.63721 6.32769,-5.88576 0,-3.24856 -2.8329959,-5.88576 -6.32769,-5.88576 z M 37.50643,263.93699 3.7642111,260.13702 c -0.3292508,-2.53731 -2.6220195,-4.50722 -5.4362353,-4.50722 -2.3523055,0 -4.345392,1.38253 -5.1321577,3.31249 L -13.1055,258.23104 c -2.749884,-0.30767 -4.818091,-2.47737 -4.818091,-5.05464 v -23.9546 c 0,-1.83005 1.710586,-3.24855 3.663316,-3.04477 l 35.30616,3.69608 c -2.28198,1.31461 -3.814755,3.64414 -3.814755,6.3253 0,4.11563 3.588595,7.45209 8.016699,7.45209 4.426506,0 8.0163,-3.33646 8.0163,-7.45209 0,-2.0738 -0.909835,-3.94382 -2.37708,-5.29439 l 7.38417,0.77118 c 1.667032,0.17582 2.926896,1.48643 2.926896,3.04477 v 26.17625 c 0,1.83805 -1.729366,3.26453 -3.691685,3.04077" /></g></g><g
       id="g1626"><path
         d="m 185.43596,258.01527 c 0,-28.45383 -23.06794,-51.52136 -51.52216,-51.52136 -28.45423,0 -51.522167,23.06753 -51.522167,51.52136 0,28.45383 23.067937,51.52137 51.522167,51.52137 28.45422,0 51.52216,-23.06754 51.52216,-51.52137"
         style="fill:#383838;fill-opacity:1;fill-rule:nonzero;stroke:none;stroke-width:0.39957628"
         id="path34"
         inkscape:connector-curvature="0" /><g
         transform="matrix(1.1165813,0,0,1.1165813,-15.611625,-30.079751)"
         style="fill:#ececec;fill-opacity:1"
         id="g1044"><path
           inkscape:connector-curvature="0"
           id="path36"
           style="fill:#ececec;fill-opacity:1;fill-rule:nonzero;stroke:none;stroke-width:0.39957628"
           d="m 142.52666,226.18103 c 0,-3.49629 -2.83299,-6.32929 -6.32928,-6.32929 -3.4963,0 -6.33089,2.833 -6.33089,6.32929 0,3.49629 2.83459,6.32929 6.33089,6.32929 3.49629,0 6.32928,-2.833 6.32928,-6.32929" /><path
           inkscape:connector-curvature="0"
           id="path38"
           style="fill:#ececec;fill-opacity:1;fill-rule:nonzero;stroke:none;stroke-width:0.39957628"
           d="m 150.4135,241.20909 c 0,-3.49629 -2.833,-6.32929 -6.32929,-6.32929 -3.49629,0 -6.33088,2.833 -6.33088,6.32929 0,3.4963 2.83459,6.32929 6.33088,6.32929 3.49629,0 6.32929,-2.83299 6.32929,-6.32929" /><path
           inkscape:connector-curvature="0"
           id="path40"
           style="fill:#ececec;fill-opacity:1;fill-rule:nonzero;stroke:none;stroke-width:0.39957628"
           d="m 134.01849,241.20909 c 0,-3.49629 -2.8346,-6.32929 -6.33089,-6.32929 -3.49629,0 -6.32929,2.833 -6.32929,6.32929 0,3.4963 2.833,6.32929 6.32929,6.32929 3.49629,0 6.33089,-2.83299 6.33089,-6.32929" /><path
           inkscape:connector-curvature="0"
           id="path42"
           style="fill:#ececec;fill-opacity:1;fill-rule:nonzero;stroke:none;stroke-width:0.39957628"
           d="m 142.21579,254.90657 c 0,-3.49629 -2.83459,-6.32929 -6.33088,-6.32929 -3.4963,0 -6.32889,2.833 -6.32889,6.32929 0,3.49629 2.83259,6.33328 6.32889,6.33328 3.49629,0 6.33088,-2.83699 6.33088,-6.33328" /><path
           inkscape:connector-curvature="0"
           id="path44"
           style="fill:#ececec;fill-opacity:1;fill-rule:nonzero;stroke:none;stroke-width:0.39957628"
           d="m 158.19565,254.90657 c 0,-3.49629 -2.8326,-6.32929 -6.32889,-6.32929 -3.49629,0 -6.33089,2.833 -6.33089,6.32929 0,3.49629 2.8346,6.33328 6.33089,6.33328 3.49629,0 6.32889,-2.83699 6.32889,-6.33328" /><path
           inkscape:connector-curvature="0"
           id="path46"
           style="fill:#ececec;fill-opacity:1;fill-rule:nonzero;stroke:none;stroke-width:0.39957628"
           d="m 125.81918,254.90657 c 0,-3.49629 -2.83459,-6.32929 -6.32929,-6.32929 -3.49629,0 -6.33088,2.833 -6.33088,6.32929 0,3.49629 2.83459,6.33328 6.33088,6.33328 3.4947,0 6.32929,-2.83699 6.32929,-6.33328" /><path
           inkscape:connector-curvature="0"
           id="path48"
           style="fill:#ececec;fill-opacity:1;fill-rule:nonzero;stroke:none;stroke-width:0.39957628"
           d="m 141.24962,267.87681 v 0 c 0.67288,-0.23175 1.39692,0.13586 1.61549,0.81514 0.86308,2.66917 3.65252,8.85461 11.44106,11.18414 1.18954,0.35562 1.87761,1.58632 1.48603,2.76507 v 0 c -0.40278,1.20672 -1.75774,1.81807 -2.91731,1.29063 -3.398,-1.53837 -9.79281,-5.53813 -12.42922,-14.52859 -0.1854,-0.63533 0.17981,-1.30662 0.80395,-1.52639" /><path
           inkscape:connector-curvature="0"
           id="path50"
           style="fill:#ececec;fill-opacity:1;fill-rule:nonzero;stroke:none;stroke-width:0.39957628"
           d="m 110.87583,291.20008 c 0,0 4.77453,-4.1516 0,-9.03042 0,0 10.89604,-1.82207 7.05651,-6.20143 0,0 -3.32007,-2.30555 -8.30079,-2.825 0,0 8.1977,-1.76213 7.67786,-6.32929 0,0 8.09461,6.06956 7.67945,-1.0389 0,0 1.86842,4.27547 5.91573,2.03385 0,0 -5.1885,11.14418 7.67906,8.8626 0,0 -2.17889,4.87882 0.72603,6.2254 0,0 -8.19771,0.31167 -3.1123,7.05651 0,0 -4.98072,-0.41556 -6.64136,6.2254 0,0 0.72563,-9.96143 -3.73684,-8.92254 0,0 -4.98072,0.72723 -6.32929,6.32929 0,0 -1.76533,-5.70595 -8.61406,-2.38547" /></g></g><g
       id="g1632"><path
         d="m -58.300931,83.414822 c 0,-28.455825 -23.067538,-51.522165 -51.521759,-51.522165 -28.45423,0 -51.52217,23.06634 -51.52217,51.522165 0,28.454228 23.06794,51.520168 51.52217,51.520168 28.454221,0 51.521759,-23.06594 51.521759,-51.520168"
         style="fill:#383838;fill-opacity:1;fill-rule:nonzero;stroke:none;stroke-width:0.39957628"
         id="path52"
         inkscape:connector-curvature="0" /><g
         transform="matrix(1.2525739,0,0,1.2525739,28.761216,-21.068404)"
         style="fill:#ececec;fill-opacity:1"
         id="g1021"><path
           inkscape:connector-curvature="0"
           id="path54"
           style="fill:#ececec;fill-opacity:1;fill-rule:nonzero;stroke:none;stroke-width:0.39957628"
           d="m -143.09246,95.715777 15.0932,-10.340634 c 1.27385,-0.871076 1.27385,-3.051564 0,-3.922241 l -15.0932,-10.340634 c -1.27225,-0.872675 -2.86256,0.218568 -2.86256,1.961919 v 20.679671 c 0,1.743351 1.59031,2.832996 2.86256,1.961919" /><path
           inkscape:connector-curvature="0"
           id="path56"
           style="fill:#ececec;fill-opacity:1;fill-rule:nonzero;stroke:none;stroke-width:0.39957628"
           d="m -86.34024,84.02977 c -1.560745,-1.259465 -3.81955,-1.050486 -5.041454,0.466705 -1.223902,1.515593 -0.948994,3.766406 0.611751,5.02587 1.560745,1.259465 3.817952,1.050486 5.041454,-0.466705 1.223902,-1.515593 0.948994,-3.766406 -0.611751,-5.02587 z M -103.731,98.512811 c -15.68976,0 -34.7915,-12.764464 -34.7915,-15.097989 0,-3.580603 19.10174,-15.099588 34.7915,-15.099588 15.687766,0 28.407078,6.760031 28.407078,15.099588 0,8.337958 -12.719312,15.097989 -28.407078,15.097989" /></g></g><g
       id="g1636"><path
         d="m 63.159227,83.414822 c 0,-28.455825 -23.067938,-51.522165 -51.522164,-51.522165 -28.454227,0 -51.521766,23.06634 -51.521766,51.522165 0,28.454228 23.067539,51.520168 51.521766,51.520168 28.454226,0 51.522164,-23.06594 51.522164,-51.520168"
         style="fill:#383838;fill-opacity:1;fill-rule:nonzero;stroke:none;stroke-width:0.39957628"
         id="path58"
         inkscape:connector-curvature="0" /><path
         d="M 19.35542,61.353635 C 1.6272718,47.681499 0.44046595,67.918507 0.44046595,67.918507 14.659206,55.886185 28.696838,74.844661 28.696838,74.844661 49.11636,101.6442 30.521505,111.06612 30.521505,111.06612 45.96683,112.3877 42.007223,90.341465 42.007223,90.341465 38.906832,79.584866 37.084037,75.027644 19.35542,61.353635 Z M 8.825793,97.452477 c -0.9121001,7.655743 7.658081,16.406563 13.125531,12.760033 0,0 -9.66105,0.9121 -9.295554,-19.871045 0,0 1.27619,-10.756599 -6.1989092,-12.215303 0,0 3.2815002,11.668699 2.3689322,19.326315 z m 15.313822,1.093207 c 2.517283,0 4.557223,-2.040408 4.557223,-4.557227 0,-2.51728 -2.03994,-4.55956 -4.557223,-4.55956 -2.517283,0 -4.557223,2.04228 -4.557223,4.55956 0,2.516819 2.03994,4.557227 4.557223,4.557227 z m 7.292117,19.092326 C 3.5394522,130.03395 -2.4769428,91.385069 -1.3818614,86.827847 -0.28865225,82.270155 -5.5754613,71.331042 -7.5807703,69.325733 -9.586079,67.320424 -10.86227,62.216596 -9.586079,61.121515 c 0,0 -4.740204,-0.546605 -8.3872,1.095081 -3.645123,1.639815 -8.56831,-2.553785 -4.011087,-6.928494 0.48998,-0.469855 0.01498,-4.869836 0.413231,-5.89004 1.030967,-2.634279 4.830057,-3.670394 6.703395,-1.392719 1.855554,2.253808 3.354505,7.820471 7.4680794,6.650514 0,0 20.7831446,-19.421313 48.8584066,20.50329 0,0 17.867608,30.081043 -10.027014,42.478863"
         style="fill:#ececec;fill-opacity:1;fill-rule:nonzero;stroke:none;stroke-width:0.46798345"
         id="path60"
         inkscape:connector-curvature="0" /></g><g
       id="g1664"><path
         d="m 58.557751,-86.736874 c 0,-28.459026 -23.06354,-51.521766 -51.5213696,-51.521766 -28.4538204,0 -51.5213604,23.06274 -51.5213604,51.521766 0,28.454226 23.06754,51.520166 51.5213604,51.520166 28.4578296,0 51.5213696,-23.06594 51.5213696,-51.520166"
         style="fill:#383838;fill-opacity:1;fill-rule:nonzero;stroke:none;stroke-width:0.39957628"
         id="path94"
         inkscape:connector-curvature="0" /><path
         d="m 22.312191,-69.4552 c -0.8511,-3.16864 -4.06769,-5.530136 -7.91961,-5.530136 -4.4992296,0 -8.1473596,3.216989 -8.1473596,7.184781 0,1.185942 0.33165,2.297564 0.90704,3.283718 -0.16782,0.0048 -0.33564,0.02038 -0.50346,0.02038 -12.3589,0 -22.5441004,-7.955563 -24.0944504,-18.252644 0.13186,0.01558 0.25972,0.03916 0.39558,0.03916 1.67822,0 3.08073,-1.181547 3.42037,-2.761072 h 1.09484 c 0.34363,1.579525 1.74215,2.761072 3.4243704,2.761072 1.67822,0 3.08073,-1.181547 3.42037,-2.761072 h 1.25067 c 0.33964,1.579525 1.74216,2.761072 3.42038,2.761072 1.68221,0 3.08073,-1.181547 3.42037,-2.761072 h 1.56634 c 0.33964,1.579525 1.73816,2.761072 3.42037,2.761072 1.67822,0 3.0807296,-1.181547 3.4203696,-2.761072 h 1.25467 c 0.33964,1.579525 1.73816,2.761072 3.42038,2.761072 1.67822,0 3.08073,-1.181547 3.42037,-2.761072 h 0.939 c 0.33964,1.579525 1.74216,2.761072 3.42038,2.761072 1.68221,0 3.08073,-1.181547 3.42437,-2.761072 h 1.09483 c 0.30768,1.431282 1.49042,2.522126 2.96086,2.717518 -0.79915,5.314365 -3.91584,9.996999 -8.43105,13.298299"
         style="fill:#ececec;fill-opacity:1;fill-rule:nonzero;stroke:none;stroke-width:0.39957628"
         id="path96"
         inkscape:connector-curvature="0" /><path
         d="m 21.293271,-66.883128 c 0,-3.827141 -3.06475,-6.928253 -6.84874,-6.928253 -3.78399,0 -6.8487396,3.101112 -6.8487396,6.928253 0,3.824345 3.0647496,6.925456 6.8487396,6.925456 1.70619,0 4.33141,-1.139192 4.33141,-1.139192 l -2.48937,-4.098853 4.1516,1.670229 c 0,0 0.8551,-2.141729 0.8551,-3.35764"
         style="fill:#ececec;fill-opacity:1;fill-rule:nonzero;stroke:none;stroke-width:0.39957628"
         id="path98"
         inkscape:connector-curvature="0" /><path
         d="m 18.152601,-63.433586 c 0,0 3.78798,5.965674 6.38523,6.276145 0,0 1.34657,0.209378 1.13879,-1.398517 -0.20778,-1.609094 -5.34234,-3.683294 -7.52402,-4.877628"
         style="fill:#ececec;fill-opacity:1;fill-rule:nonzero;stroke:none;stroke-width:0.39957628"
         id="path100"
         inkscape:connector-curvature="0" /><path
         d="m 34.667081,-88.547355 c 0,1.93395 -1.56634,3.503885 -3.50028,3.503885 -1.93395,0 -3.50429,-1.569935 -3.50429,-3.503885 h -0.93501 c 0,1.93395 -1.56634,3.503885 -3.50029,3.503885 -1.93394,0 -3.50428,-1.569935 -3.50428,-3.503885 h -0.77518 c 0,1.93395 -1.57033,3.503885 -3.50428,3.503885 -1.93395,0 -3.50029,-1.569935 -3.50029,-3.503885 h -1.09084 c 0,1.93395 -1.5703396,3.503885 -3.5042896,3.503885 -1.93395,0 -3.50028,-1.569935 -3.50028,-3.503885 h -1.40252 c 0,1.93395 -1.56634,3.503885 -3.50029,3.503885 -1.93394,0 -3.50428,-1.569935 -3.50428,-3.503885 h -1.08685 c 0,1.93395 -1.57033,3.503885 -3.50428,3.503885 -1.9339504,0 -3.5042904,-1.569935 -3.5042904,-3.503885 h -0.93101 c 0,1.93395 -1.57033,3.503885 -3.50428,3.503885 -1.93395,0 -3.50029,-1.569935 -3.50029,-3.503885 0,-0.663296 0.19579,-1.278644 0.51545,-1.806084 l 6.42919,-22.507341 c 0.58737,-2.05422 2.46538,-3.46992 4.5991204,-3.46992 H 22.028491 c 2.06181,0 3.89187,1.3238 4.53918,3.28093 l 7.42013,22.444997 c 0.42355,0.578986 0.67928,1.286236 0.67928,2.057418"
         style="fill:#ececec;fill-opacity:1;fill-rule:nonzero;stroke:none;stroke-width:0.39957628"
         id="path102"
         inkscape:connector-curvature="0" /></g><g
       id="g1644"
       transform="translate(-245.60422,174.91937)"><path
         d="m 185.43596,83.414822 c 0,-28.455825 -23.06794,-51.522165 -51.52216,-51.522165 -28.45423,0 -51.522167,23.06634 -51.522167,51.522165 0,28.454228 23.067937,51.520168 51.522167,51.520168 28.45422,0 51.52216,-23.06594 51.52216,-51.520168"
         style="fill:#383838;fill-opacity:1;fill-rule:nonzero;stroke:none;stroke-width:0.39957628"
         id="path62"
         inkscape:connector-curvature="0" /><g
         style="fill:#ececec;fill-opacity:1"
         transform="matrix(0.12089478,0,0,0.12089478,-74.691402,49.253398)"
         id="g2242"><path
           inkscape:connector-curvature="0"
           id="path542"
           style="fill:#ececec;fill-opacity:1;fill-rule:nonzero;stroke:none;stroke-width:2.73384881"
           d="m 1355.8719,193.89739 c -18.016,128.38431 85.542,212.17401 200.035,234.58884 63.8082,12.46093 131.444,9.51378 195.7987,2.40304 41.0899,-4.56001 144.5108,-22.33007 170.9199,-58.939 -23.1559,-24.25205 -93.689,-30.7886 -125.2917,-47.94902 -44.1791,-24.0278 -73.5684,-55.30575 -88.6864,-103.81242 35.4036,113.34812 198.6139,105.34063 285.1947,142.54558 53.0643,22.80031 55.9623,-16.89514 29.9357,-52.94645 -39.3667,-54.5485 -62.8787,-121.98709 -95.1099,-180.84961 -105.1442,-191.47879 -538.5413,-178.577742 -572.796,64.95904 -4.347,30.89518 6.8889,-48.96326 0,0" /><path
           inkscape:connector-curvature="0"
           id="path544"
           style="fill:#ececec;fill-opacity:1;fill-rule:nonzero;stroke:none;stroke-width:2.73384881"
           d="m 1754.3297,443.66181 c 0,0 77.9423,46.14462 104.5695,71.76357 26.6554,25.64078 45.1087,-35.87087 45.1087,-35.87087 l -44.0968,-58.44693 -105.5814,22.55423" /><path
           inkscape:connector-curvature="0"
           id="path546"
           style="fill:#ececec;fill-opacity:1;fill-rule:nonzero;stroke:none;stroke-width:2.73384881"
           d="m 1943.8677,509.0801 c -11.3181,-11.53136 -32.2593,-9.26773 -46.8307,4.9975 -14.5446,14.30078 -17.1415,35.19009 -5.8233,46.72145 11.2912,11.51224 32.2324,9.24861 46.7759,-5.03024 14.5716,-14.26525 17.1693,-35.17647 5.8781,-46.68871" /><path
           inkscape:connector-curvature="0"
           id="path548"
           style="fill:#ececec;fill-opacity:1;fill-rule:nonzero;stroke:none;stroke-width:2.73384881"
           d="m 2090.1557,362.0291 c -11.2901,-11.51224 -32.2322,-9.26772 -46.7759,5.03024 -14.5445,14.26803 -17.1964,35.17647 -5.8782,46.72154 11.3182,11.47941 32.2594,9.23769 46.831,-5.06307 14.5444,-14.26524 17.1415,-35.15457 5.8231,-46.68871" /></g></g><g
       id="g1657"><path
         d="m -59.117508,-91.186027 c 0,-28.459023 -23.067538,-51.521763 -51.521762,-51.521763 -28.45423,0 -51.52217,23.06274 -51.52217,51.521763 0,28.454226 23.06794,51.520166 51.52217,51.520166 28.454224,0 51.521762,-23.06594 51.521762,-51.520166"
         style="fill:#383838;fill-opacity:1;fill-rule:nonzero;stroke:none;stroke-width:0.39957628"
         id="path84"
         inkscape:connector-curvature="0" /><g
         transform="matrix(0.29692773,0.00564597,0,0.22065413,-180.70486,-125.20409)"
         id="g1601"><path
           inkscape:connector-curvature="0"
           id="path27924"
           style="fill:#ececec;fill-opacity:1;fill-rule:evenodd;stroke:none;stroke-width:0.35000002"
           d="m 185.75936,351.73167 v 0 l -0.20649,-0.028 z m 61.02252,-368.473006 2.2505,223.282506 c -0.6475,24.927 -32.8335,36.3475 -32.8335,51.779 v 20.78651 51.28549 h 0.9205 c 1.2915,0 2.3205,1.057 2.3205,2.331 v 8.344 c 0,1.27751 -1.0325,2.32401 -2.3205,2.32401 h -0.9205 v 5.572 0.0665 l -0.007,0.0735 v 0.07 0.077 l -0.004,0.07 -0.0175,0.063 -0.014,0.07 -0.0175,0.0735 -0.014,0.07 -0.014,0.063 -0.0175,0.0665 -0.0175,0.063 -0.0315,0.07 -0.0105,0.063 -0.0245,0.0595 -0.028,0.0665 h -0.004 l -0.028,0.063 -0.021,0.0595 h -0.007 l -0.028,0.0665 h -0.007 l -0.1295,0.238 c -0.3395,0.5075 -0.826,0.9065 -1.4105,1.1165 l -0.049,0.0245 h -0.007 l -0.0735,0.021 -0.049,0.0245 -0.07,0.014 h -0.0105 l -0.063,0.0175 -0.0665,0.0175 -0.0665,0.0105 h -0.007 l -0.07,0.0175 -0.0665,0.007 -0.0735,0.0105 -0.0665,0.007 -0.07,0.004 -0.07,0.007 h -0.0789 -27.09351 -0.11201 l -0.105,-0.007 -0.11199,-0.0105 -0.105,-0.0105 -0.105,-0.014 -0.2065,-0.028 c -1.47701,-0.266 -2.695,-1.3195 -3.199,-2.6915 l -0.0385,-0.1015 -0.1855,-0.812 h 0.007 l -0.0175,-0.1015 -0.0175,-0.1085 v -0.105 l -0.007,-0.1085 v -0.105 -4.179 h -0.931 c -1.2705,0 -2.3205,-1.0465 -2.3205,-2.324 v -8.344 c 0,-1.274 1.05,-2.331 2.3205,-2.331 h 0.931 v -51.28603 -20.78651 c 0,-15.925 -33.138,-26.0645 -32.8335,-51.779 l 2.506,-223.307006 c 0.07,-6.61501 5.4845,-11.97001 12.1065,-11.97001 h 70.80151 c 6.6255,0 12.04,5.355 12.1065,11.99451" /><g
           id="g1590"
           style="fill:#ececec;fill-opacity:1"><path
             d="m 297.64388,128.80616 c 4.459,3.38451 -5.194,3.27951 -14.0105,3.171 -4.312,-0.0525 -8.421,-0.10149 -10.5875,0.252 -4.4485,-3.37749 5.2115,-3.27249 14.0245,-3.171 4.312,0.0525 8.4175,0.105 10.5735,-0.252"
             style="fill:#ececec;fill-opacity:1;fill-rule:evenodd;stroke:none;stroke-width:0.35000002"
             id="path2056"
             inkscape:connector-curvature="0" /><g
             transform="matrix(0.35000002,0,0,0.35000002,-1801.6352,-982.55591)"
             id="g21540"
             style="fill:#ececec;fill-opacity:1"><g
               id="g21542"
               clip-path="url(#clipPath21546)"
               style="fill:#ececec;fill-opacity:1"><path
                 d="m 5997.94,3175.32 c -3.98,0.66 -10.29,0.83 -17.58,0.83 -3.99,0 -8.27,-0.05 -12.63,-0.11 -4.36,-0.05 -8.79,-0.1 -13.08,-0.1 -20.45,0 -37.5,1.18 -26.99,9.16 3.98,-0.65 10.25,-0.82 17.5,-0.82 4.02,0 8.35,0.05 12.75,0.1 4.4,0.06 8.87,0.11 13.19,0.11 20.41,0 37.36,-1.19 26.84,-9.17"
                 style="fill:#ececec;fill-opacity:1;fill-rule:nonzero;stroke:none"
                 id="path21556"
                 inkscape:connector-curvature="0" /></g></g><path
             d="m 288.43888,74.836164 c -2.485,-10.1255 -2.583,-69.6640003 0.1785,-78.7885003 4.193,-5.166 9.436,-8.8304997 15.603,-11.3329997 3.6995,-1.5015 11.165,-2.8175 13.5555,-5.76451 3.9795,-4.879 2.3485,-13.8355 -4.795,-14.553 l -0.336,-0.0455 h -74.242 l -0.3395,0.0455 c -7.1505,0.7175 -8.785,9.6845 -4.809,14.553 2.401,2.94701 9.863,4.26301 13.573,5.76451 6.1635,2.5025 11.3995,6.1669997 15.5855,11.3329997 2.7615,9.1245 2.6775,68.6630003 0.175,78.7885003 -2.751,4.4275 -16.863,12.551 -21.084,15.2705 -2.786,1.792 -5.544,3.6225 -8.1935,5.614 -21.679,16.250496 -19.46,38.254996 -14.6055,61.991996 2.7895,13.60101 7.4445,26.99901 12.4285,39.93501 l 1.673,4.3505 h 85.428 l 1.6765,-4.3505 c 4.977,-12.936 9.6285,-26.334 12.418,-39.93501 4.8545,-23.737 7.0735,-45.7345 -14.6125,-61.991996 -2.646,-1.9915 -5.4075,-3.836 -8.19,-5.6245 -4.2315,-2.7195 -18.3225,-10.8325 -21.0875,-15.26"
             style="fill:#ececec;fill-opacity:1;fill-rule:evenodd;stroke:none;stroke-width:0.35000002"
             id="path27926"
             inkscape:connector-curvature="0" /><path
             d="m 237.45088,195.21167 c -3.3915,-8.8305 -9.086,-24.101 -12.0995,-38.86401 -4.4345,-21.651 -6.902,-41.02 12.0295,-55.195 11.8055,-8.830496 27.7935,-16.057996 31.5385,-23.754496 3.157,-10.0065 3.339,-79.8140003 -0.728,-84.9975003 -11.907,-15.1865097 -28.4025,-16.1525097 -29.6835,-17.7310097 -0.7525,-0.9205 -0.931,-3.416 0.2345,-3.5385 h 73.549 c 1.169,0.1225 0.987,2.618 0.2415,3.5385 -1.2915,1.5785 -17.7835,2.5445 -29.694,17.7310097 -4.053,5.1835 -3.878,74.9910003 -0.7245,84.9975003 3.7415,7.6965 19.7435,14.924 31.5455,23.754496 18.921,14.175 16.4535,33.544 12.0225,55.195 -3.01,14.77001 -8.701,30.03351 -12.103,38.86401 h -76.1285"
             style="fill:#ececec;fill-opacity:1;fill-rule:evenodd;stroke:none;stroke-width:0.35000002"
             id="path27928"
             inkscape:connector-curvature="0" /></g><path
           inkscape:connector-curvature="0"
           id="path27930"
           style="fill:#383838;fill-opacity:1;fill-rule:evenodd;stroke:none;stroke-width:0.35000002"
           d="m 160.11837,209.47067 h 7.196 l -3.0485,-209.80750628 h -2.765 L 160.11837,209.47067" /></g></g></g></svg>