<?xml version="1.0" encoding="UTF-8" standalone="no"?>
<!-- Created with Inkscape (http://www.inkscape.org/) -->

<svg
   xmlns:dc="http://purl.org/dc/elements/1.1/"
   xmlns:cc="http://creativecommons.org/ns#"
   xmlns:rdf="http://www.w3.org/1999/02/22-rdf-syntax-ns#"
   xmlns:svg="http://www.w3.org/2000/svg"
   xmlns="http://www.w3.org/2000/svg"
   xmlns:sodipodi="http://sodipodi.sourceforge.net/DTD/sodipodi-0.dtd"
   xmlns:inkscape="http://www.inkscape.org/namespaces/inkscape"
   width="213.33797mm"
   height="95.132904mm"
   viewBox="0 0 213.33796 95.132904"
   version="1.1"
   id="svg8"
   inkscape:version="0.92.3 (2405546, 2018-03-11)"
   sodipodi:docname="AskTurnLogo.svg">
  <defs
     id="defs2" />
  <sodipodi:namedview
     id="base"
     pagecolor="#ffffff"
     bordercolor="#666666"
     borderopacity="1.0"
     inkscape:pageopacity="0.0"
     inkscape:pageshadow="2"
     inkscape:zoom="0.175"
     inkscape:cx="1323.0548"
     inkscape:cy="1568.2285"
     inkscape:document-units="mm"
     inkscape:current-layer="layer1"
     showgrid="false"
     fit-margin-top="0"
     fit-margin-left="0"
     fit-margin-right="0"
     fit-margin-bottom="0"
     inkscape:window-width="2560"
     inkscape:window-height="1387"
     inkscape:window-x="0"
     inkscape:window-y="0"
     inkscape:window-maximized="1" />
  <metadata
     id="metadata5">
    <rdf:RDF>
      <cc:Work
         rdf:about="">
        <dc:format>image/svg+xml</dc:format>
        <dc:type
           rdf:resource="http://purl.org/dc/dcmitype/StillImage" />
        <dc:title></dc:title>
      </cc:Work>
    </rdf:RDF>
  </metadata>
  <g
     inkscape:label="Capa 1"
     inkscape:groupmode="layer"
     id="layer1"
     transform="translate(1732.1688,-647.12611)">
    <g
       id="g839"
       transform="matrix(1.2642374,0,0,1.2642374,-1419.0678,222.47252)"
       style="fill:#ececec;fill-opacity:1;stroke:#ececec;stroke-width:0.59796089;stroke-miterlimit:4;stroke-dasharray:none;stroke-opacity:1">
      <path
         d="m -161.79396,372.67853 v -1.32856 c 0,-0.8248 -0.6671,-1.49225 -1.49189,-1.49225 -0.8248,0 -1.4919,0.66745 -1.4919,1.49225 v 1.32856 c -8.08144,-0.71544 -14.53233,-7.18115 -15.22578,-15.26893 h 1.28576 c 0.82445,0 1.49155,-0.6671 1.49155,-1.4919 0,-0.82479 -0.6671,-1.4919 -1.49155,-1.4919 h -1.27885 c 0.73515,-8.04439 7.16848,-14.46283 15.21887,-15.17614 v 1.23578 c 0,0.82479 0.6671,1.4919 1.4919,1.4919 0.82479,0 1.49189,-0.66711 1.49189,-1.4919 v -1.23578 c 8.05074,0.71331 14.484,7.13175 15.21883,15.17614 h -1.27846 c -0.8248,0 -1.4919,0.66711 -1.4919,1.4919 0,0.8248 0.6671,1.4919 1.4919,1.4919 h 1.28587 c -0.69356,8.08778 -7.14445,14.55349 -15.22624,15.26893 z m -1.49189,-36.48252 c -10.91848,0 -19.76798,8.84943 -19.76798,19.76826 0,10.91847 8.8495,19.76829 19.76798,19.76829 10.91847,0 19.76825,-8.84982 19.76825,-19.76829 0,-10.91883 -8.84978,-19.76826 -19.76825,-19.76826"
         style="fill:#ececec;fill-opacity:1;fill-rule:nonzero;stroke:#ececec;stroke-width:0.59796089;stroke-miterlimit:4;stroke-dasharray:none;stroke-opacity:1"
         id="path24"
         inkscape:connector-curvature="0" />
      <path
         d="m -154.39833,346.33379 -8.83708,9.26006 -0.0505,-0.002 c -0.11042,0 -0.21837,0.0113 -0.32314,0.0318 l -7.39599,-5.58871 c -0.48965,-0.36724 -1.19168,-0.27376 -1.56457,0.22154 -0.37288,0.48966 -0.27693,1.19451 0.21872,1.56739 l 7.39387,5.58659 c 0.0713,0.86078 0.79199,1.53847 1.67111,1.53847 0.92675,0 1.67852,-0.75213 1.67852,-1.67852 0,-0.0444 -0.003,-0.0878 -0.007,-0.13123 l 8.83567,-9.26042 c 0.4258,-0.44909 0.41098,-1.15429 -0.0374,-1.58256 -0.44591,-0.42827 -1.15429,-0.40781 -1.58256,0.0381"
         style="fill:#ececec;fill-opacity:1;fill-rule:nonzero;stroke:#ececec;stroke-width:0.59796089;stroke-miterlimit:4;stroke-dasharray:none;stroke-opacity:1"
         id="path26"
         inkscape:connector-curvature="0" />
    </g>
    <flowRoot
       xml:space="preserve"
       id="flowRoot818"
       style="font-style:normal;font-variant:normal;font-weight:normal;font-stretch:normal;font-size:96px;line-height:1.25;font-family:Caladea;-inkscape-font-specification:Caladea;text-align:center;letter-spacing:0px;word-spacing:0px;text-anchor:middle;fill:#000000;fill-opacity:1;stroke:none"
       transform="matrix(0.26458333,0,0,0.26458333,-662.90061,158.39972)"><flowRegion
         id="flowRegion820"><rect
           id="rect822"
           width="2194.2856"
           height="1180"
           x="-1048.5714"
           y="-642.79681" /></flowRegion><flowPara
         id="flowPara824" /></flowRoot>    <text
       xml:space="preserve"
       style="font-style:normal;font-variant:normal;font-weight:normal;font-stretch:normal;font-size:47.28568649px;line-height:1.25;font-family:Caladea;-inkscape-font-specification:Caladea;text-align:center;letter-spacing:0px;word-spacing:0px;text-anchor:middle;fill:#ececec;fill-opacity:1;stroke:none;stroke-width:0.49255925"
       x="-1590.1608"
       y="757.70941"
       id="text827"
       transform="scale(1.0214375,0.97901243)"><tspan
         sodipodi:role="line"
         id="tspan825"
         x="-1590.1608"
         y="757.70941"
         style="font-style:normal;font-variant:normal;font-weight:normal;font-stretch:normal;font-family:Roboto;-inkscape-font-specification:Roboto;fill:#ececec;stroke-width:0.49255925">ASK<tspan
   style="font-style:normal;font-variant:normal;font-weight:bold;font-stretch:normal;font-family:Roboto;-inkscape-font-specification:'Roboto Bold';fill:#ececec;stroke-width:0.49255925"
   id="tspan829">TURN</tspan></tspan></text>
  </g>
</svg>
